<svg xmlns="http://www.w3.org/2000/svg" xmlns:xlink="http://www.w3.org/1999/xlink" viewBox="567 403 27.984 28.701">
  <defs>
    <style>
      .cls-1 {
        fill: none;
      }

      .cls-2 {
        clip-path: url(#clip-path);
      }

      .cls-3 {
        fill: #cca252;
      }

      .cls-3, .cls-4 {
        fill-rule: evenodd;
      }

      .cls-4 {
        fill: #fc6;
      }
    </style>
    <clipPath id="clip-path">
      <path id="path" class="cls-1" d="M0-19.615H27.984v28.7H0Z" transform="translate(0 19.615)"/>
    </clipPath>
  </defs>
  <g id="group" transform="translate(567 403)">
    <g id="group-2" data-name="group" class="cls-2" transform="translate(0 0)">
      <g id="group-3" data-name="group" transform="translate(9.064 26.011)">
        <path id="path-2" data-name="path" class="cls-3" d="M0,0A5.5,5.5,0,0,0,4.928,2.691,5.5,5.5,0,0,0,9.855,0Z"/>
      </g>
      <g id="group-4" data-name="group" transform="translate(0 0)">
        <path id="path-3" data-name="path" class="cls-4" d="M3.748,1.136A2,2,0,0,1,5.9-.658,2,2,0,0,1,8.054,1.136,2,2,0,0,1,5.9,2.93,2,2,0,0,1,3.748,1.136M17.741,19.972s-2.152-1.8-2.152-7.176c0-4.461-1.491-8.3-6.288-9.483a3.2,3.2,0,0,0,.906-2.177c0-1.981-1.927-3.588-4.3-3.588S1.6-.845,1.6,1.136A3.2,3.2,0,0,0,2.5,3.313C-2.3,4.5-3.785,8.335-3.785,12.8c0,5.38-2.152,7.176-2.152,7.176a2,2,0,0,0-2.154,1.792,2,2,0,0,0,2.154,1.794H17.741a2,2,0,0,0,2.152-1.794,2,2,0,0,0-2.152-1.792" transform="translate(8.091 2.452)"/>
      </g>
    </g>
  </g>
</svg>
