<svg xmlns="http://www.w3.org/2000/svg" viewBox="564 402 32 31.999">
  <defs>
    <style>
      .cls-1 {
        fill: none;
      }

      .cls-2 {
        clip-path: url(#clip-path);
      }

      .cls-3 {
        fill: #87c056;
      }

      .cls-4 {
        fill: #fff;
        fill-rule: evenodd;
      }
    </style>
    <clipPath id="clip-path">
      <path id="path" class="cls-1" d="M0-32H32V0H0Z" transform="translate(0 31.999)"/>
    </clipPath>
  </defs>
  <g id="group" transform="translate(564 402)">
    <g id="group-2" data-name="group" class="cls-2">
      <g id="group-3" data-name="group">
        <path id="path-2" data-name="path" class="cls-3" d="M0,0A16,16,0,0,0-16,16,16,16,0,0,0,0,32,16,16,0,0,0,16,16,16,16,0,0,0,0,0" transform="translate(16 0)"/>
      </g>
      <g id="group-4" data-name="group">
        <path id="path-3" data-name="path" class="cls-4" d="M0,0H-4V-4A1,1,0,0,0-5-5,1,1,0,0,0-6-4V0h-4a1,1,0,0,0-1,1,1,1,0,0,0,1,1h4V6A1,1,0,0,0-5,7,1,1,0,0,0-4,6V2H0A1,1,0,0,0,1,1,1,1,0,0,0,0,0" transform="translate(21 14.999)"/>
      </g>
    </g>
  </g>
</svg>
