<svg xmlns="http://www.w3.org/2000/svg" viewBox="564 402 32 31.999">
  <defs>
    <style>
      .cls-1 {
        fill: none;
      }

      .cls-2 {
        clip-path: url(#clip-path);
      }

      .cls-3 {
        fill: #479fdc;
        fill-rule: evenodd;
      }
    </style>
    <clipPath id="clip-path">
      <path id="path" class="cls-1" d="M0-32H32V0H0Z" transform="translate(0 31.999)"/>
    </clipPath>
  </defs>
  <g id="group" transform="translate(564 402)">
    <g id="group-2" data-name="group" class="cls-2">
      <g id="group-3" data-name="group">
        <path id="path-2" data-name="path" class="cls-3" d="M0,0,5.308-13.8,10.615,0ZM22.308,9H21.3c-.995,0-1.634-1.069-1.992-2l-10-26c-.4-1.031-.9-2-2-2s-1.6.969-2,2l-10,26c-.359.93-1,1.994-1.993,2H-7.692a1,1,0,0,0-1,1,1,1,0,0,0,1,1h8a1,1,0,0,0,0-2H-.706c-1.987,0-2.345-1.069-1.986-2L-.77,2H11.385l1.923,5c.358.93,0,1.994-1.987,2H10.308a1,1,0,1,0,0,2h12a1,1,0,0,0,0-2" transform="translate(8.692 21)"/>
      </g>
    </g>
  </g>
</svg>
